<svg xmlns="http://www.w3.org/2000/svg" width="168" height="30"><g fill="none" opacity=".6"><path fill="#797FA2" fill-opacity=".4" d="M73.45 19.662v-6.106c0-2.304-1.47-3.856-3.835-3.876a3.774 3.774 0 00-3.424 1.734 3.579 3.579 0 00-3.22-1.734 3.224 3.224 0 00-2.85 1.45V9.907H58v9.754h2.141V14.26c0-1.694.937-2.59 2.386-2.59 1.45 0 2.121.917 2.121 2.57v5.422h2.13V14.26c0-1.694.977-2.59 2.385-2.59 1.409 0 2.142.917 2.142 2.57v5.422h2.145zm31.686-9.746h-3.464V6.961H99.53v2.955h-1.978v1.938h1.978v4.441c0 2.264.875 3.611 3.383 3.611a4.983 4.983 0 002.65-.753l-.61-1.815a3.917 3.917 0 01-1.877.55c-1.058 0-1.408-.652-1.408-1.63v-4.404h3.464l.004-1.938zm18.088-.244a2.874 2.874 0 00-2.569 1.429V9.916h-2.1v9.746h2.12V14.2c0-1.629.693-2.508 2.081-2.508.454-.006.905.077 1.327.244l.652-1.998a4.531 4.531 0 00-1.51-.265zM95.878 10.69a7.288 7.288 0 00-3.977-1.018c-2.467 0-4.071 1.185-4.071 3.118 0 1.592 1.18 2.57 3.362 2.874l.998.143c1.16.163 1.714.468 1.714 1.018 0 .753-.774 1.184-2.223 1.184a5.195 5.195 0 01-3.257-1.017l-.965 1.648a7.031 7.031 0 004.222 1.266c2.813 0 4.446-1.327 4.446-3.18 0-1.713-1.287-2.609-3.404-2.914l-.997-.142c-.916-.122-1.653-.306-1.653-.957 0-.712.692-1.14 1.856-1.14a6.282 6.282 0 013.037.835l.912-1.718zm56.801-1.018a2.874 2.874 0 00-2.569 1.429V9.916h-2.1v9.746h2.12V14.2c0-1.629.693-2.508 2.081-2.508.454-.006.905.077 1.327.244l.652-1.998a4.531 4.531 0 00-1.51-.265zm-27.313 5.117c0 2.956 2.06 5.117 5.199 5.117a5.105 5.105 0 003.505-1.164l-1.018-1.714a4.283 4.283 0 01-2.548.875c-1.694 0-2.936-1.245-2.936-3.118 0-1.873 1.246-3.098 2.936-3.118.921.01 1.815.317 2.548.875l1.018-1.714a5.105 5.105 0 00-3.505-1.164c-3.14 0-5.2 2.162-5.2 5.117v.008zm19.86 0V9.904h-2.122v1.185a3.697 3.697 0 00-3.078-1.43c-2.732 0-4.885 2.142-4.885 5.118 0 2.976 2.141 5.117 4.885 5.117a3.697 3.697 0 003.078-1.429v1.18h2.121V14.79zm-7.89 0c0-1.714 1.119-3.118 2.955-3.118 1.754 0 2.935 1.347 2.935 3.118s-1.18 3.118-2.935 3.118c-1.836 0-2.956-1.408-2.956-3.118zm-25.592-5.117c-2.85 0-4.853 2.08-4.853 5.117 0 3.098 2.08 5.117 4.995 5.117a5.924 5.924 0 003.998-1.368l-1.038-1.57a4.645 4.645 0 01-2.85 1.017c-1.368 0-2.61-.631-2.915-2.386h7.239c.02-.264.04-.529.04-.814 0-3.037-1.897-5.117-4.629-5.117l.013.004zm-.041 1.897c1.368 0 2.243.855 2.467 2.365h-5.052c.224-1.408 1.079-2.365 2.589-2.365h-.004zm53.19 3.22V6h-2.121v5.097a3.697 3.697 0 00-3.078-1.43c-2.732 0-4.885 2.142-4.885 5.118 0 2.976 2.141 5.117 4.885 5.117a3.697 3.697 0 003.078-1.429v1.18h2.121V14.79zm2.48 3.973a.623.623 0 01.577.379.607.607 0 01-.134.676.61.61 0 01-.444.183.631.631 0 01-.586-.379.619.619 0 01.334-.81.64.64 0 01.26-.049h-.008zm0 1.1a.46.46 0 00.337-.139.484.484 0 00-.15-.786.468.468 0 00-.188-.036.484.484 0 00-.346.822.484.484 0 00.354.139h-.008zm.036-.774a.26.26 0 01.17.049.16.16 0 01.062.134.155.155 0 01-.049.118.228.228 0 01-.134.057l.187.216h-.146l-.176-.216h-.057v.216h-.122v-.57l.265-.004zm-.143.106v.155h.143a.138.138 0 00.077 0 .065.065 0 00.029-.057.065.065 0 00-.029-.057.138.138 0 00-.077 0l-.143-.041zm-10.255-4.405c0-1.714 1.12-3.118 2.956-3.118 1.755 0 2.935 1.347 2.935 3.118s-1.18 3.118-2.935 3.118c-1.836 0-2.956-1.408-2.956-3.118zm-71.612 0V9.904h-2.121v1.185a3.697 3.697 0 00-3.066-1.417c-2.731 0-4.885 2.141-4.885 5.117s2.141 5.117 4.885 5.117a3.697 3.697 0 003.078-1.429v1.181h2.121l-.012-4.869zm-7.89 0c0-1.714 1.12-3.118 2.956-3.118 1.754 0 2.935 1.347 2.935 3.118s-1.18 3.118-2.935 3.118c-1.836 0-2.956-1.404-2.956-3.118z"/><path fill="#474D68" d="M17.679 3.519h12.814v22.95H17.679z"/><path fill="#373D56" d="M18.492 15a14.552 14.552 0 015.593-11.473C18.081-1.176 9.46-.491 4.278 5.101a14.558 14.558 0 000 19.802c5.181 5.592 13.803 6.277 19.807 1.574A14.552 14.552 0 0118.492 15z"/><path fill="#535976" d="M47.78 15a14.59 14.59 0 01-8.244 13.127 14.685 14.685 0 01-15.45-1.654 14.577 14.577 0 005.595-11.475c0-4.478-2.063-8.708-5.596-11.475A14.685 14.685 0 0139.537 1.87 14.59 14.59 0 0147.78 15z"/><path fill="#F79E1B" d="M46.373 24.036v-.47h.191v-.093h-.476v.097h.191v.47l.094-.004zm.94 0v-.567h-.127l-.17.405-.171-.405h-.15v.567h.085v-.425l.158.369h.11l.159-.37v.43l.106-.004z"/></g></svg>