<svg xmlns="http://www.w3.org/2000/svg" width="67" height="24"><g fill="none" fill-opacity=".4" fill-rule="evenodd" opacity=".6"><path d="M61.59 9.298c0-.717.556-1.297 1.234-1.297.682 0 1.232.58 1.232 1.297 0 .719-.55 1.299-1.232 1.299-.678 0-1.234-.58-1.234-1.299zm1.234.992c.519 0 .942-.446.942-.992 0-.543-.423-.984-.942-.984-.516 0-.941.441-.941.984 0 .546.425.992.941.992zm-.167-.423h-.253V8.724h.458c.093 0 .198.006.278.063a.355.355 0 01.138.287.304.304 0 01-.187.289l.198.504h-.28l-.168-.448h-.185v.448zm0-.642h.14c.052 0 .112.001.155-.024.043-.028.062-.083.062-.132 0-.043-.025-.095-.062-.115-.037-.026-.113-.02-.158-.02h-.137v.29zM43.948.67l-.338 2.2c-.733-.39-1.272-.544-1.848-.544-1.537 0-2.624 1.564-2.624 3.796 0 1.542.73 2.47 1.93 2.47.509 0 1.069-.163 1.754-.522l-.361 2.316c-.758.218-1.252.295-1.825.295-2.226 0-3.61-1.68-3.61-4.378 0-3.628 1.913-6.162 4.65-6.162.353 0 .669.035.926.11l.85.222c.254.1.31.116.496.197zm-6.852 1.508a1.134 1.134 0 00-.21-.021c-.681 0-1.066.36-1.697 1.342l.183-1.253h-1.87l-1.268 8.249h2.075c.742-5.042.931-5.913 1.926-5.913.06 0 .066 0 .15.009.184-.994.435-1.725.782-2.391l-.07-.022zm-12.359 8.216c-.562.187-1.005.272-1.482.272-1.053 0-1.629-.643-1.629-1.815 0-.23.018-.478.06-.74l.127-.804.095-.656.895-5.629h2.053l-.236 1.224h1.057l-.29 2.005h-1.054l-.545 3.443c-.02.152-.035.264-.035.341 0 .423.215.611.703.611.238 0 .418-.024.556-.077l-.275 1.825zm-8.138-5.54c0 1.041.479 1.761 1.564 2.3.831.413.963.534.963.91 0 .512-.369.749-1.181.749-.613 0-1.186-.102-1.846-.33l-.285 1.902.093.02.379.08c.122.027.301.05.538.075.493.046.87.068 1.137.068 2.166 0 3.168-.875 3.168-2.753 0-1.13-.418-1.797-1.45-2.297-.861-.41-.959-.507-.959-.89 0-.448.342-.678 1.005-.678.405 0 .953.048 1.477.123l.294-1.905a12.878 12.878 0 00-1.811-.162c-2.298 0-3.095 1.266-3.086 2.788zm43.793 5.641h-1.954l.103-.809c-.57.639-1.153.918-1.908.918-1.51 0-2.5-1.362-2.5-3.425 0-2.743 1.538-5.06 3.364-5.06.802 0 1.41.348 1.98 1.13l.45-2.898h2.035l-1.57 10.144zm-3.047-1.943c.965 0 1.639-1.146 1.639-2.778 0-1.049-.385-1.62-1.099-1.62-.935 0-1.6 1.151-1.6 2.774 0 1.08.358 1.624 1.06 1.624zm-26.069 1.769a6.831 6.831 0 01-2.121.332c-2.303 0-3.505-1.268-3.505-3.693 0-2.835 1.53-4.921 3.61-4.921 1.696 0 2.785 1.17 2.785 3.002 0 .607-.073 1.199-.257 2.035h-4.105c-.017.125-.02.183-.02.256 0 .964.614 1.45 1.816 1.45.736 0 1.4-.16 2.141-.525l-.344 2.064zM30.118 5.41a6.54 6.54 0 00.014-.417c0-.674-.363-1.068-.977-1.068-.655 0-1.124.526-1.317 1.48l2.28.005zM8.31 10.495H6.248L7.428 2.7 4.79 10.495H3.376l-.171-7.75-1.244 7.75H.029L1.64.35h2.973l.082 6.277L6.7.35h3.21zm5.315-3.675a3.45 3.45 0 00-.462-.035c-1.17 0-1.763.426-1.763 1.259 0 .514.292.84.742.84.84 0 1.449-.84 1.483-2.064zm1.501 3.675h-1.71l.038-.857c-.521.683-1.217 1-2.163 1-1.122 0-1.889-.92-1.889-2.247 0-2.014 1.34-3.183 3.629-3.183.233 0 .532.018.84.06.064-.272.081-.39.081-.534 0-.545-.359-.752-1.326-.752-.584 0-1.255.089-1.717.236l-.287.083-.18.053.284-1.85c1.03-.32 1.709-.444 2.474-.444 1.774 0 2.714.838 2.714 2.419 0 .41-.03.715-.17 1.636l-.433 2.923-.07.528-.053.42-.036.287-.026.222zM47.504 6.82a3.405 3.405 0 00-.458-.035c-1.175 0-1.77.426-1.77 1.259 0 .514.295.84.746.84.844 0 1.445-.84 1.482-2.064zm1.503 3.675h-1.712l.04-.857c-.52.683-1.218 1-2.163 1-1.122 0-1.892-.92-1.892-2.247 0-2.014 1.338-3.183 3.632-3.183.232 0 .534.018.839.06.063-.272.082-.39.082-.534 0-.545-.359-.752-1.326-.752-.588 0-1.256.089-1.714.236l-.294.083-.178.053.287-1.85c1.032-.32 1.71-.444 2.469-.444 1.776 0 2.717.838 2.717 2.419 0 .41-.036.715-.17 1.636l-.435 2.923-.064.528-.058.42-.037.287-.023.222zm5.767-8.317a1.03 1.03 0 00-.208-.021c-.678 0-1.065.36-1.7 1.342l.184-1.253h-1.867l-1.263 8.249h2.068c.742-5.042.937-5.913 1.925-5.913.064 0 .06-.005.144.009.188-.994.44-1.725.787-2.391l-.07-.022z" fill="#797FA2"/><path d="M46.942 18.631c0 1.881-.584 2.989-1.505 2.989-.672.02-1.08-.726-1.08-1.843 0-1.321.596-2.819 1.551-2.819.768 0 1.034.812 1.034 1.673zm2.05.035c0-2.091-1.036-3.719-2.984-3.719-2.242 0-3.694 1.98-3.694 4.893 0 2.086.858 3.791 2.981 3.791 2.143 0 3.698-1.512 3.698-4.965zm-6.008-5.186l-.319 2.21c-.693-.39-1.197-.552-1.742-.552-1.457 0-2.474 1.58-2.474 3.825 0 1.55.68 2.488 1.816 2.488.484 0 1.013-.164 1.656-.526l-.337 2.328c-.72.221-1.191.297-1.726.297-2.099 0-3.406-1.691-3.406-4.405 0-3.652 1.804-6.2 4.388-6.2.335 0 .631.042.876.11l.797.225c.246.098.297.115.47.2zm-12.891 1.519a.766.766 0 00-.2-.023c-.633 0-1.003.364-1.596 1.349l.172-1.26h-1.762l-1.19 8.3h1.946c.7-5.077.885-5.95 1.82-5.95.054 0 .06 0 .141.009.176-1.004.412-1.74.74-2.411l-.071-.014zm25.427 8.277h-1.839l.095-.81c-.535.639-1.091.921-1.803.921-1.419 0-2.355-1.371-2.355-3.446 0-2.755 1.453-5.092 3.172-5.092.758 0 1.334.357 1.865 1.143l.43-2.918H57l-1.48 10.202zm-2.877-1.952c.917 0 1.549-1.152 1.549-2.796 0-1.058-.361-1.625-1.03-1.625-.886 0-1.515 1.153-1.515 2.791 0 1.082.337 1.63.996 1.63zm-40.806 1.918a6.008 6.008 0 01-1.994.338c-2.174 0-3.309-1.279-3.309-3.717 0-2.847 1.444-4.948 3.403-4.948 1.605 0 2.628 1.174 2.628 3.018 0 .61-.07 1.207-.236 2.048h-3.88a2.566 2.566 0 00-.016.258c0 .967.581 1.455 1.71 1.455.696 0 1.325-.161 2.022-.525l-.328 2.073zm-1.088-4.937c.009-.176.014-.316.014-.422 0-.677-.342-1.073-.92-1.073-.622 0-1.064.533-1.242 1.486l2.148.009zm24.246 4.937A6.033 6.033 0 0133 23.58c-2.178 0-3.312-1.279-3.312-3.717 0-2.847 1.445-4.948 3.403-4.948 1.605 0 2.632 1.174 2.632 3.018 0 .61-.073 1.207-.245 2.048h-3.872c-.012.124-.02.185-.02.258 0 .967.58 1.455 1.71 1.455.696 0 1.326-.161 2.024-.525l-.325 2.073zm-1.094-4.937c.012-.176.02-.316.02-.422 0-.677-.345-1.073-.921-1.073-.622 0-1.064.533-1.244 1.486l2.145.009zm28.263 4.937a6.078 6.078 0 01-2 .338c-2.175 0-3.312-1.279-3.312-3.717 0-2.847 1.448-4.948 3.405-4.948 1.605 0 2.627 1.174 2.627 3.018 0 .61-.067 1.207-.24 2.048H58.77a2.116 2.116 0 00-.016.258c0 .967.581 1.455 1.71 1.455.697 0 1.325-.161 2.024-.525l-.323 2.073zm-1.095-4.937c.009-.176.014-.316.014-.422 0-.677-.34-1.073-.92-1.073-.622 0-1.062.533-1.242 1.486l2.148.009zM6.075 15.374c-.381-.254-.897-.477-1.627-.477-.787 0-1.42.163-1.42.998 0 1.474 2.87.924 2.87 4.08 0 2.876-1.894 3.622-3.608 3.622-.762 0-1.639-.252-2.285-.538l.465-2.113c.39.353 1.177.595 1.82.595.613 0 1.574-.167 1.574-1.234 0-1.67-2.868-1.049-2.868-3.981 0-2.682 1.676-3.486 3.292-3.486.91 0 1.765.133 2.267.466l-.48 2.068zm11.463 7.865c-.402.192-.938.319-1.73.319-1.7 0-2.756-1.696-2.756-3.76 0-2.701 1.526-4.857 3.773-4.857.49 0 1.237.212 1.827.552l-.43 1.982c-.418-.273-.852-.447-1.3-.447-1.041 0-1.785.95-1.785 2.655 0 .981.54 1.786 1.392 1.786.507 0 .864-.107 1.3-.361l-.291 2.13zm7.282-2.079a32.63 32.63 0 00-.248 2.152h-1.874l.158-1.34h-.02c-.586.91-1.193 1.531-2.255 1.531-1.176 0-1.814-1.234-1.814-2.846 0-.556.035-.87.16-1.737l.53-3.84h2.086l-.56 3.851c-.057.414-.136.825-.136 1.253 0 .485.222.976.784.946.855 0 1.36-1.042 1.503-2.259l.576-3.792h2.018l-.908 6.082zm39.286 2.052h-.315v-1.376h-.456v-.295h1.227v.295h-.456zm2.091 0h-.294v-1.397h-.004l-.282 1.397h-.309l-.275-1.397h-.004v1.397h-.294v-1.67h.46l.273 1.317h.004l.27-1.318h.455z" fill="#BEC6F0"/></g></svg>