<svg xmlns="http://www.w3.org/2000/svg" width="68" height="30"><g fill="none" fill-opacity=".4" fill-rule="evenodd" opacity=".6"><path fill="#797FA2" d="M27.399 16l-3.33 9.56-.354-1.942c-.83-2.382-2.625-4.881-4.715-5.894L22.046 30l3.6-.002L31 16h-3.601M30 30l2.31-14H36l-2.31 14H30m16-13.43a7.881 7.881 0 00-2.986-.57c-3.297 0-5.612 1.841-5.633 4.475-.02 1.951 1.656 3.04 2.917 3.687 1.301.664 1.736 1.09 1.732 1.683-.013.908-1.041 1.323-1.997 1.323-1.332 0-2.042-.205-3.134-.71l-.433-.216L36 29.278c.78.378 2.219.705 3.715.722 3.498 0 5.774-1.82 5.801-4.632.014-1.547-.876-2.719-2.8-3.685-1.162-.63-1.88-1.046-1.87-1.683.001-.563.603-1.166 1.91-1.166a5.585 5.585 0 012.493.521l.298.156.453-2.94M55.294 16h-2.58c-.801 0-1.4.247-1.754 1.163L46 30h3.51s.573-1.728.703-2.107c.383 0 3.79.009 4.277.009.104.488.407 2.098.407 2.098H58l-2.706-14zm-4.12 9.028c.278-.804 1.331-3.916 1.331-3.916-.02.038.274-.81.445-1.335l.222 1.208.776 4.043h-2.774z"/><path fill="#BEC6F0" d="M20.35 16h-5.32l-.031.222c4.135 1.066 6.864 3.683 8 6.778l-1.156-5.916c-.199-.814-.777-1.055-1.494-1.084"/><path fill="#797FA2" d="M4.77 13H2.555L0 1.412 2.448 1l1.748 9.069 4.453-8.95H11L4.77 13m11.068-4.08h-4.927c-.135 1.682.56 2.416 1.736 2.416.985 0 1.852-.412 2.785-1.074l-.007 1.682C14.51 12.588 13.452 13 12.212 13c-2.145 0-3.562-1.378-3.136-4.492C9.46 5.7 11.186 4 13.189 4c2.305 0 3.071 1.95 2.736 4.402-.024.178-.07.393-.087.518zm-2.9-3.435c-.763 0-1.476.68-1.812 2.093h3.052c.056-1.342-.318-2.093-1.24-2.093zM19.8 7.943L19.065 13H17l1.28-8.818h1.756v1.771c.7-1.022 1.65-1.88 2.952-1.953L23 6.172c-1.304.092-2.478.822-3.2 1.771M23 13l1.292-8.257h2.085L25.086 13H23zm2.569-9.641c-.695 0-1.177-.479-1.07-1.162.11-.701.744-1.197 1.439-1.197.678 0 1.156.496 1.046 1.197-.107.683-.738 1.162-1.415 1.162zM32.12 1.65c-.73 0-1.172.302-1.29 1.026l-.194 1.195h1.639l-.002 1.649h-1.906L29.311 12h-2.12l1.056-6.48H27l.269-1.65h1.247l.227-1.396C29.037.674 30.358 0 32.121 0c.375 0 .654.034.863.067L33 1.717a5.732 5.732 0 00-.88-.068M32 13l1.292-8.257h2.085L34.085 13H32zm2.568-9.641c-.694 0-1.176-.479-1.069-1.162.11-.701.744-1.197 1.438-1.197.678 0 1.157.496 1.047 1.197-.107.683-.738 1.162-1.416 1.162zm8.27 5.561h-4.927c-.135 1.682.56 2.416 1.736 2.416.985 0 1.852-.412 2.785-1.074l-.007 1.682C41.51 12.588 40.452 13 39.212 13c-2.145 0-3.562-1.378-3.136-4.492C36.46 5.7 38.186 4 40.189 4c2.305 0 3.071 1.95 2.736 4.402-.025.178-.07.393-.087.518zm-2.9-3.435c-.763 0-1.476.68-1.812 2.093h3.052c.056-1.342-.318-2.093-1.24-2.093zm9.386 7.338l.005-1.19C48.636 12.36 47.735 13 46.584 13c-1.734 0-2.926-1.332-2.496-4.227.476-3.197 2.387-4.617 4.31-4.617.79 0 1.405.142 1.876.32l.615-4.139L53 0l-1.908 12.823h-1.768zm.688-6.59c-.478-.248-.854-.373-1.558-.373-1.082 0-2.007.906-2.287 2.79-.248 1.668.323 2.45 1.233 2.45.755 0 1.407-.462 2.062-1.172l.55-3.695zM57.416 13A6.517 6.517 0 0155 12.56l1.304-9.299L57.842 3l-.564 4.025c.45-.44 1.075-.88 1.838-.88 1.277 0 2.132 1.045 1.82 3.27C60.592 11.86 59.218 13 57.415 13zm1.108-5.399c-.5 0-1.003.371-1.448.866l-.422 3.008c.296.124.5.179.926.179.951 0 1.616-.632 1.828-2.143.179-1.278-.208-1.91-.884-1.91zm5.96 5.309c-.825 1.594-1.641 2.09-2.892 2.09-.283 0-.44-.027-.582-.067L61 13.607c.207.054.43.094.739.094.47 0 .88-.214 1.155-.683l.214-.429-1.369-6.375L63.454 6l.795 4.607 2.15-4.513H68l-3.516 6.817"/></g></svg>