<svg xmlns="http://www.w3.org/2000/svg" width="68" height="22"><g fill="none" fill-opacity=".4" opacity=".6"><path fill="#797FA2" d="M28.922 22H24l3.078-21H32zM49 .907C47.948.476 46.28 0 44.216 0c-5.267 0-8.977 2.9-9 7.046-.043 3.058 2.656 4.757 4.675 5.777 2.064 1.042 2.765 1.723 2.765 2.652-.02 1.426-1.667 2.084-3.203 2.084-2.13 0-3.27-.339-5.004-1.133l-.703-.34-.746 4.78c1.251.589 3.556 1.111 5.949 1.134 5.596 0 9.24-2.855 9.283-7.273.021-2.424-1.404-4.282-4.477-5.8-1.866-.974-3.008-1.631-3.008-2.628.022-.907.966-1.835 3.072-1.835 1.734-.046 3.008.385 3.973.815l.483.226L49 .907zm7.623 13.653c.46-1.206 2.226-5.875 2.226-5.875-.023.045.458-1.229.733-2.01l.39 1.809s1.055 5.027 1.284 6.077h-4.633zM63.503 1h-4.31c-1.33 0-2.34.38-2.914 1.742L48 22h5.848l1.17-3.15h7.156c.16.737.665 3.15.665 3.15H68L63.503 1zm-43.5 0l-5.555 14.335-.607-2.907c-1.026-3.355-4.247-7-7.841-8.812L11.088 22h5.997L26 1h-5.997z"/><path fill="#BEC6F0" d="M9.373 1H.095L0 1.409C7.237 3.088 12.03 7.135 14 12l-2.017-9.3c-.332-1.291-1.352-1.657-2.61-1.7z"/></g></svg>